<svg width="2638" height="400" viewBox="0 0 2638 400" fill="none" xmlns="http://www.w3.org/2000/svg">
<path d="M284.773 18.1C244.773 31.8 211.573 51.1 182.773 77.4C146.573 110.4 125.173 126.5 90.2726 146.9C74.3726 156.2 37.6726 174.8 18.0726 183.5C10.7726 186.8 4.97262 189.5 5.17262 189.7C5.27262 189.9 10.7726 187.8 17.3726 185.1C57.3726 168.6 94.0726 149.7 123.673 130.3C145.673 115.9 154.273 109.2 182.873 83.9C203.173 66 212.673 58.5 227.773 48.4C247.073 35.6 265.473 26.5 290.273 17.4C302.873 12.8 298.773 13.3 284.773 18.1Z" fill="black"/>
<path d="M367.773 20.6C345.473 23.3 326.373 27.7 304.273 35.1C288.073 40.5 280.573 43.8 279.973 45.7C279.773 46.4 283.473 51 288.173 55.9C297.373 65.6 305.673 77.3 313.273 91.4L318.073 100.2L332.673 99.6C360.473 98.3 445.373 95.1 464.773 94.5C475.473 94.1 485.273 93.7 486.573 93.4L488.773 93L486.873 89.2C485.773 87.2 482.573 82 479.573 77.8C459.073 48.3 434.173 30.1 404.473 23C396.473 21 375.273 19.7 367.773 20.6Z" fill="black"/>
<path d="M245.273 60.8C237.073 65.1 226.673 71 222.273 73.9C213.673 79.7 193.473 99.3 190.373 104.9L188.473 108.3L191.373 107.7C209.873 103.7 229.173 102.1 267.573 101.3C290.873 100.8 299.073 100.4 299.873 99.4C300.573 98.5 300.173 96.8 298.373 93.2C293.573 83.7 281.273 66.5 274.573 59.7C265.573 50.7 264.873 50.7 245.273 60.8Z" fill="black"/>
<path d="M694.773 89.6C678.573 90.2 660.973 90.9 655.773 91L646.273 91.3L655.273 92.1C660.273 92.5 675.973 93.9 690.273 95C722.473 97.6 764.173 102.8 794.973 108C870.673 120.7 868.673 120.3 881.673 127.1C905.073 139.4 932.673 162.1 948.273 181.9C950.973 185.3 953.273 187.8 953.473 187.6C953.973 187.1 943.873 166.8 934.673 149.8C926.973 135.8 926.173 132.1 930.273 129.4C934.273 126.8 949.673 125.2 983.373 123.9C1018.07 122.6 1025.07 123.1 1048.77 129.1C1055.07 130.7 1060.47 132 1060.77 132C1062.07 131.8 1052.97 127.7 1045.67 125C1011.47 112.4 941.473 100.8 847.273 92C800.873 87.8 755.073 87 694.773 89.6Z" fill="black"/>
<path d="M994.773 131.7C971.873 132.5 948.173 134.2 946.373 135.2C943.473 136.7 942.773 138 942.773 141.7C942.773 145.5 949.473 158.8 958.773 173.8C967.973 188.4 973.373 194.8 979.673 198.4L985.173 201.4L1007.17 202.2C1035.37 203.1 1076.07 205 1085.87 205.7C1092.87 206.2 1093.57 206.1 1095.57 203.9C1098.67 200.6 1098.37 195.3 1094.37 181.2C1084.07 145.4 1081.47 143.2 1040.57 134.4C1024.37 130.9 1021.17 130.7 994.773 131.7Z" fill="black"/>
<path d="M774.273 133.9C767.873 137.9 764.273 143.9 765.373 148.8C768.873 163 784.973 177.1 801.273 180.1C813.573 182.4 825.973 178.7 828.773 172C831.873 164.5 827.373 153.9 817.973 146.5C802.473 134.3 782.673 128.6 774.273 133.9Z" fill="black"/>
<path d="M848.073 134.4C840.073 141.1 841.773 153.6 852.373 167.6C865.073 184.4 889.173 193.5 901.273 186C907.173 182.3 908.473 174.5 904.573 164.3C901.373 155.6 888.073 142.7 876.173 136.9C868.373 133 866.473 132.5 859.273 132.2C851.673 131.8 850.973 132 848.073 134.4Z" fill="black"/>
<path d="M817.273 139.4C825.873 145.2 831.473 150.8 834.173 156.2C837.373 162.6 837.473 166.3 834.473 172.3C832.473 176.1 832.373 176.7 833.773 176C834.773 175.5 836.273 173.4 837.273 171.4C839.473 166.7 838.773 160.6 835.173 154C831.873 148 827.973 144.1 820.373 139.6C812.773 135 810.673 134.9 817.273 139.4Z" fill="black"/>
<path d="M902.173 151.4C908.573 159.5 911.773 166 912.673 173.4L913.473 179.5L915.073 175.8C916.073 173.7 916.773 171.3 916.773 170.3C916.773 166.5 911.773 158.3 906.673 153.4C898.273 145.6 896.873 145 902.173 151.4Z" fill="black"/>
<path d="M1092.07 158.1C1092.77 163.4 1106.47 191.5 1110.77 196.3C1114.57 200.6 1115.47 200.9 1116.37 197.6C1117.87 191.4 1107.87 168.5 1099.67 159.6C1093.37 152.7 1091.27 152.3 1092.07 158.1Z" fill="black"/>
<path d="M626.973 173.4C636.373 177.3 641.273 180.6 648.073 188C662.873 204 670.073 228.5 670.073 263C670.073 295.8 662.773 326.2 650.373 344.9C642.673 356.5 634.573 362.8 618.773 369.8C616.473 370.8 616.573 370.9 620.373 370.9C626.373 371 639.073 367.5 646.073 363.8C654.273 359.4 663.973 350.2 669.873 341.2C688.673 312.6 693.273 260.7 680.473 223.5C670.873 195.8 652.373 176.5 630.973 172.1C622.373 170.3 620.773 170.8 626.973 173.4Z" fill="black"/>
<path d="M0.772596 191C-0.0274037 191.5 -0.227404 192 0.272596 192C0.872596 192 1.9726 191.5 2.7726 191C3.5726 190.5 3.8726 190 3.2726 190C2.7726 190 1.5726 190.5 0.772596 191Z" fill="black"/>
<path d="M196.973 217.2C197.273 217.9 199.173 223.6 201.173 229.8C203.273 236 206.373 243.2 208.073 245.8C212.473 252.3 220.073 256.7 228.073 257.4C233.473 257.9 266.573 258.4 419.773 260.5C437.673 260.7 451.373 260.7 450.273 260.4C448.573 260.1 399.373 257.1 259.773 248.9C239.773 247.7 231.173 246.2 223.973 242.6C217.473 239.3 207.873 230.4 202.073 222.3C197.773 216.3 195.973 214.5 196.973 217.2Z" fill="black"/>
<path d="M238.773 276.9C228.573 278.5 219.373 279.9 218.273 280.2C214.673 281 246.573 282 298.273 282.6C351.673 283.3 440.773 282.3 440.773 281C440.773 280.6 429.873 280 416.573 279.6C389.873 278.9 350.073 277.6 308.273 276C293.473 275.5 275.873 274.8 269.273 274.6C259.573 274.2 253.673 274.7 238.773 276.9Z" fill="black"/>
<path d="M717.373 280.9C716.673 282 718.573 327.2 719.373 327.9C720.073 328.6 731.273 329.8 756.273 332C830.273 338.3 908.973 340.4 978.773 338C1070.67 334.8 1109.37 330.7 1129.57 322C1135.17 319.6 1142.37 312.6 1143.37 308.6C1143.87 306.3 1141.47 298 1138.67 292.9C1137.67 291 1137.57 291.1 1133.47 293.4C1116.37 303.4 1053.17 311 986.773 311C952.073 311 863.873 307.4 841.373 305C827.273 303.5 817.673 298.2 809.773 287.5L805.973 282.3L764.073 281.7C741.073 281.3 721.273 280.8 720.173 280.4C718.973 280.1 717.673 280.3 717.373 280.9Z" fill="black"/>
<path d="M692.673 312C685.573 340.5 670.273 360.2 646.073 372.4C642.073 374.4 638.773 376.3 638.773 376.7C638.773 377.6 674.173 376.3 685.273 375C690.273 374.4 696.173 373 698.473 371.9C702.273 370.1 724.773 349.7 724.773 348.1C724.773 347.7 719.173 346.9 712.273 346.4C705.273 345.8 699.173 344.7 698.273 344C697.073 343 696.773 340 696.673 329.1C696.573 321.6 696.273 312.3 695.873 308.5L695.273 301.5L692.673 312Z" fill="black"/>
<path d="M132.273 312.1C138.373 313.1 169.173 318 200.773 323C232.373 327.9 266.873 333.3 277.273 335L296.273 338L364.773 337.9C430.873 337.7 432.673 337.7 416.273 336.4C316.473 328.3 230.673 320.6 144.873 312C121.373 309.6 117.673 309.6 132.273 312.1Z" fill="black"/>
<path d="M1038.27 350.1C1032.27 350.5 1001.87 351.1 970.873 351.5C939.773 351.8 914.173 352.2 914.073 352.4C913.473 353 923.973 362 929.773 366C958.773 385.7 991.773 388 1024.57 372.5C1035.07 367.5 1044.97 361.2 1052.07 355C1059.47 348.5 1059.77 348.6 1038.27 350.1Z" fill="black"/>
<path d="M1392.37 263.6C1385.17 265.733 1378.91 267.067 1373.57 267.6C1368.51 267.867 1362.24 267.733 1354.77 267.2C1347.31 266.4 1341.17 266 1336.37 266C1324.11 266 1316.37 269.867 1313.17 277.6L1307.17 304.8C1305.31 314.4 1299.97 321.067 1291.17 324.8C1289.31 317.867 1288.37 312.133 1288.37 307.6C1288.37 302.8 1289.17 297.6 1290.77 292C1292.64 286.4 1294.51 281.6 1296.37 277.6C1298.51 273.333 1300.64 268.267 1302.77 262.4C1304.91 256.533 1306.24 251.067 1306.77 246C1306.51 243.6 1307.57 241.2 1309.97 238.8C1312.64 236.4 1315.31 234.4 1317.97 232.8C1320.91 231.2 1322.51 230.267 1322.77 230C1328.64 225.733 1336.37 216.267 1345.97 201.6C1355.84 186.667 1360.64 175.733 1360.37 168.8C1360.37 166.4 1359.71 163.333 1358.37 159.6C1357.04 155.867 1356.11 153.2 1355.57 151.6C1355.04 150 1355.71 147.6 1357.57 144.4C1358.64 142.533 1363.17 140.133 1371.17 137.2C1379.44 134.267 1385.44 132.533 1389.17 132C1389.44 134.133 1390.11 141.333 1391.17 153.6C1392.24 165.867 1393.71 173.467 1395.57 176.4C1401.44 187.067 1409.97 203.467 1421.17 225.6C1432.37 247.733 1442.91 266.933 1452.77 283.2C1461.04 297.067 1465.17 308.8 1465.17 318.4C1457.17 317.067 1450.51 313.467 1445.17 307.6C1442.51 304.933 1436.37 293.867 1426.77 274.4C1420.91 262.133 1409.44 258.533 1392.37 263.6ZM1350.77 215.6C1345.44 222.267 1343.04 228.667 1343.57 234.8C1344.37 240.933 1349.04 244.667 1357.57 246C1379.71 249.2 1397.57 249.2 1411.17 246C1407.71 235.067 1402.24 223.733 1394.77 212C1387.57 200.267 1380.37 191.6 1373.17 186C1371.04 188.667 1363.57 198.533 1350.77 215.6ZM1621.52 195.2C1621.52 228.533 1620.98 250.133 1619.92 260C1616.98 289.333 1607.65 308 1591.92 316C1584.98 319.467 1576.85 321.333 1567.52 321.6C1558.18 321.867 1550.05 321.733 1543.12 321.2C1536.18 320.4 1529.52 318.933 1523.12 316.8C1516.98 314.667 1512.18 311.6 1508.72 307.6C1505.52 303.333 1503.92 298 1503.92 291.6C1503.92 289.467 1503.92 286.267 1503.92 282C1503.92 263.867 1503.78 249.867 1503.52 240C1503.25 230.133 1502.05 218.4 1499.92 204.8C1497.78 190.933 1494.58 179.867 1490.32 171.6C1487.65 167.067 1486.72 163.067 1487.52 159.6C1488.58 155.867 1492.05 154 1497.92 154C1503.25 154.267 1508.18 158.533 1512.72 166.8C1517.52 174.8 1520.98 183.867 1523.12 194C1525.25 203.867 1526.32 212.667 1526.32 220.4C1526.05 223.867 1525.78 228.4 1525.52 234C1525.25 239.6 1524.98 244 1524.72 247.2C1524.72 250.4 1524.72 254.4 1524.72 259.2C1524.72 263.733 1524.98 267.467 1525.52 270.4C1526.05 273.333 1526.72 276.533 1527.52 280C1528.32 283.467 1529.52 286.267 1531.12 288.4C1532.98 290.267 1535.12 292.267 1537.52 294.4C1539.92 296.267 1542.85 297.6 1546.32 298.4C1549.78 299.2 1553.78 299.6 1558.32 299.6C1568.45 299.6 1576.85 295.467 1583.52 287.2C1590.45 278.933 1595.38 269.067 1598.32 257.6C1601.25 245.867 1602.45 233.467 1601.92 220.4C1601.92 215.067 1601.12 207.067 1599.52 196.4C1598.18 185.467 1597.78 176.8 1598.32 170.4C1599.12 164 1601.52 158.533 1605.52 154C1611.38 159.067 1615.52 164.667 1617.92 170.8C1620.32 176.667 1621.52 184.8 1621.52 195.2ZM1725.4 147.6C1733.4 151.6 1739.54 154 1743.8 154.8C1748.34 155.333 1756.2 154.933 1767.4 153.6C1774.87 152.533 1780.6 152 1784.6 152C1788.6 152 1792.6 153.067 1796.6 155.2C1799.8 156.8 1801.4 160.667 1801.4 166.8C1793.67 166.8 1779.94 168.933 1760.2 173.2C1756.47 174 1753.4 175.733 1751 178.4C1748.87 181.067 1747.54 184.667 1747 189.2C1746.74 193.733 1746.6 198 1746.6 202C1746.6 206 1746.87 210.933 1747.4 216.8C1747.94 222.4 1748.2 226.667 1748.2 229.6C1748.2 237.333 1747.67 248.133 1746.6 262C1745.54 275.867 1745 286.533 1745 294C1745 306.267 1744.07 314 1742.2 317.2C1740.6 320.933 1737.54 322.933 1733 323.2C1728.47 323.467 1724.87 320.933 1722.2 315.6C1719.54 310.267 1718.47 304.933 1719 299.6C1719.27 296.933 1720.34 289.067 1722.2 276C1724.07 262.933 1725.4 252.133 1726.2 243.6C1727 234.8 1727.4 225.867 1727.4 216.8C1727.4 211.467 1727.27 207.067 1727 203.6C1726.74 199.867 1725.94 196 1724.6 192C1723.54 188 1722.07 184.8 1720.2 182.4C1718.34 180 1715.67 178 1712.2 176.4C1709 174.8 1705.14 174 1700.6 174C1697.14 174 1690.87 174.8 1681.8 176.4C1673 177.733 1665.14 178.4 1658.2 178.4C1651.54 178.133 1646.34 176.533 1642.6 173.6C1637.8 169.6 1634.87 163.067 1633.8 154C1644.47 151.6 1654.87 151.067 1665 152.4C1675.14 153.467 1686.2 154 1698.2 154C1710.2 153.733 1719.27 151.6 1725.4 147.6ZM1884.89 312C1870.49 317.333 1857.95 318.267 1847.29 314.8C1836.62 311.067 1828.22 303.867 1822.09 293.2C1816.22 282.267 1813.69 269.6 1814.49 255.2C1815.02 238.933 1816.35 226.533 1818.49 218C1820.89 209.2 1825.69 199.333 1832.89 188.4C1836.62 182.8 1839.02 179.2 1840.09 177.6C1841.42 175.733 1843.69 173.067 1846.89 169.6C1850.09 165.867 1852.75 163.333 1854.89 162C1857.02 160.667 1859.82 159.333 1863.29 158C1867.02 156.667 1871.15 155.733 1875.69 155.2C1879.42 154.933 1884.09 156 1889.69 158.4C1895.29 160.533 1901.55 162.667 1908.49 164.8C1915.69 166.667 1922.75 167.067 1929.69 166C1943.82 163.867 1954.22 165.6 1960.89 171.2C1967.55 176.533 1970.49 186 1969.69 199.6C1968.62 225.733 1959.95 248.533 1943.69 268C1927.69 287.467 1908.09 302.133 1884.89 312ZM1943.69 180C1937.55 180.267 1930.49 182.533 1922.49 186.8C1914.75 191.067 1906.49 196.267 1897.69 202.4C1889.15 208.267 1882.49 212.267 1877.69 214.4C1877.42 210.933 1878.75 206.8 1881.69 202C1884.62 197.2 1887.69 192.667 1890.89 188.4C1894.35 184.133 1896.22 181.2 1896.49 179.6C1888.75 176.667 1881.42 176.133 1874.49 178C1867.82 179.867 1861.55 183.6 1855.69 189.2C1849.82 194.8 1844.75 201.2 1840.49 208.4C1836.22 215.6 1832.89 223.067 1830.49 230.8C1828.09 238.533 1826.89 245.733 1826.89 252.4C1826.89 259.333 1827.82 266.267 1829.69 273.2C1831.82 279.867 1834.75 285.867 1838.49 291.2C1842.22 296.267 1846.89 299.867 1852.49 302C1858.35 303.867 1865.15 303.6 1872.89 301.2C1893.95 294.267 1912.89 282 1929.69 264.4C1946.75 246.8 1955.69 226.933 1956.49 204.8C1956.49 199.467 1956.35 195.2 1956.09 192C1955.82 188.8 1954.62 186 1952.49 183.6C1950.62 181.2 1947.69 180 1943.69 180ZM1990.89 167.2C1998.36 165.867 2011.56 165.467 2030.49 166C2049.69 166.533 2062.49 165.733 2068.89 163.6C2071.29 163.867 2074.89 164.133 2079.69 164.4C2084.49 164.667 2088.49 165.067 2091.69 165.6C2094.89 166.133 2098.23 166.8 2101.69 167.6C2105.43 168.4 2108.23 169.867 2110.09 172C2111.96 174.133 2112.89 176.8 2112.89 180C2112.89 184 2111.43 187.867 2108.49 191.6C2105.56 195.067 2102.49 197.733 2099.29 199.6C2096.36 201.467 2092.09 204 2086.49 207.2C2081.16 210.133 2077.69 212.133 2076.09 213.2C2070.76 216.4 2053.56 225.2 2024.49 239.6C2036.23 250.533 2049.83 260 2065.29 268C2081.03 275.733 2100.23 284.133 2122.89 293.2C2133.83 297.467 2139.96 305.867 2141.29 318.4C2136.23 318.933 2130.49 318.133 2124.09 316C2117.69 313.867 2110.76 310.933 2103.29 307.2C2096.09 303.2 2090.89 300.667 2087.69 299.6C2081.29 297.467 2067.83 290.267 2047.29 278C2027.03 265.467 2014.23 259.333 2008.89 259.6C2004.09 259.867 2001.29 262.8 2000.49 268.4C1999.69 273.733 1999.29 280.267 1999.29 288C1999.56 295.467 1998.63 300.933 1996.49 304.4C1994.36 304.667 1991.03 305.2 1986.49 306C1985.69 303.333 1985.03 300.667 1984.49 298C1983.96 295.067 1983.43 291.733 1982.89 288C1982.63 284 1982.36 280.933 1982.09 278.8C1981.83 276.667 1981.56 273.2 1981.29 268.4C1981.29 263.333 1981.29 260 1981.29 258.4C1981.29 256.8 1981.29 252.933 1981.29 246.8C1981.29 240.667 1981.29 237.067 1981.29 236C1981.29 231.2 1980.89 224.533 1980.09 216C1979.29 207.467 1978.89 200 1978.89 193.6C1979.16 187.2 1980.23 181.333 1982.09 176C1984.23 170.933 1987.16 168 1990.89 167.2ZM2081.29 186C2043.43 180.933 2018.49 184.267 2006.49 196C2005.43 197.333 2004.63 198.8 2004.09 200.4C2003.56 201.733 2003.29 203.733 2003.29 206.4C2003.29 208.8 2003.29 210.667 2003.29 212C2003.56 213.333 2003.96 215.6 2004.49 218.8C2005.29 221.733 2005.69 223.467 2005.69 224C2020.36 221.067 2033.29 216.667 2044.49 210.8C2055.96 204.667 2068.23 196.4 2081.29 186ZM2270.89 263.6C2263.69 265.733 2257.42 267.067 2252.09 267.6C2247.02 267.867 2240.75 267.733 2233.29 267.2C2225.82 266.4 2219.69 266 2214.89 266C2202.62 266 2194.89 269.867 2191.69 277.6L2185.69 304.8C2183.82 314.4 2178.49 321.067 2169.69 324.8C2167.82 317.867 2166.89 312.133 2166.89 307.6C2166.89 302.8 2167.69 297.6 2169.29 292C2171.15 286.4 2173.02 281.6 2174.89 277.6C2177.02 273.333 2179.15 268.267 2181.29 262.4C2183.42 256.533 2184.75 251.067 2185.29 246C2185.02 243.6 2186.09 241.2 2188.49 238.8C2191.15 236.4 2193.82 234.4 2196.49 232.8C2199.42 231.2 2201.02 230.267 2201.29 230C2207.15 225.733 2214.89 216.267 2224.49 201.6C2234.35 186.667 2239.15 175.733 2238.89 168.8C2238.89 166.4 2238.22 163.333 2236.89 159.6C2235.55 155.867 2234.62 153.2 2234.09 151.6C2233.55 150 2234.22 147.6 2236.09 144.4C2237.15 142.533 2241.69 140.133 2249.69 137.2C2257.95 134.267 2263.95 132.533 2267.69 132C2267.95 134.133 2268.62 141.333 2269.69 153.6C2270.75 165.867 2272.22 173.467 2274.09 176.4C2279.95 187.067 2288.49 203.467 2299.69 225.6C2310.89 247.733 2321.42 266.933 2331.29 283.2C2339.55 297.067 2343.69 308.8 2343.69 318.4C2335.69 317.067 2329.02 313.467 2323.69 307.6C2321.02 304.933 2314.89 293.867 2305.29 274.4C2299.42 262.133 2287.95 258.533 2270.89 263.6ZM2229.29 215.6C2223.95 222.267 2221.55 228.667 2222.09 234.8C2222.89 240.933 2227.55 244.667 2236.09 246C2258.22 249.2 2276.09 249.2 2289.69 246C2286.22 235.067 2280.75 223.733 2273.29 212C2266.09 200.267 2258.89 191.6 2251.69 186C2249.55 188.667 2242.09 198.533 2229.29 215.6ZM2349.63 160.4C2354.17 158.533 2358.97 157.733 2364.03 158C2369.1 158.267 2373.1 160.4 2376.03 164.4C2387.23 180.667 2396.43 192.267 2403.63 199.2L2425.23 220.4C2431.9 214.267 2441.5 205.467 2454.03 194C2466.57 182.267 2476.03 173.2 2482.43 166.8C2485.9 163.6 2489.9 159.467 2494.43 154.4C2499.23 149.067 2502.7 145.333 2504.83 143.2C2507.23 141.067 2510.57 138.533 2514.83 135.6C2519.1 132.667 2524.03 130 2529.63 127.6C2530.7 127.333 2532.7 128.8 2535.63 132C2538.57 134.933 2539.77 137.333 2539.23 139.2C2539.23 141.067 2538.57 143.067 2537.23 145.2C2536.17 147.067 2534.57 149.2 2532.43 151.6C2530.3 153.733 2528.3 155.6 2526.43 157.2C2524.57 158.8 2522.17 160.8 2519.23 163.2C2516.3 165.333 2514.57 166.533 2514.03 166.8C2510.83 170.8 2505.1 176.533 2496.83 184C2488.57 191.467 2481.23 198.267 2474.83 204.4C2468.43 210.533 2462.7 218.267 2457.63 227.6C2452.57 236.933 2450.3 246.133 2450.83 255.2C2452.7 285.067 2452.57 304.267 2450.43 312.8C2448.57 320 2445.5 324 2441.23 324.8C2438.03 325.067 2435.23 324 2432.83 321.6C2430.7 318.933 2428.97 314.8 2427.63 309.2C2426.03 302 2425.23 288.267 2425.23 268C2425.23 260.533 2423.5 253.467 2420.03 246.8C2416.83 239.867 2412.57 233.867 2407.23 228.8C2402.17 223.467 2396.43 218 2390.03 212.4C2383.63 206.8 2377.63 201.6 2372.03 196.8C2366.7 192 2361.9 186.4 2357.63 180C2353.37 173.6 2350.7 167.067 2349.63 160.4Z" fill="#008CDB"/>
</svg>
